<svg xmlns="http://www.w3.org/2000/svg" xmlns:xlink="http://www.w3.org/1999/xlink" version="1.1" id="Capa_1" x="0px" y="0px" width="457.148px" height="457.148px" viewBox="0 0 457.14801025390625 457.14801025390625" style="enable-background:new 0 0 457.148 457.148;" xml:space="preserve"  preserveAspectRatio="xMinYMin meet" onload=""><rect id="svgEditorBackground" x="0" y="0" width="457.14801025390625" height="457.14801025390625" style="fill:none;stroke:none;"/>
<g>
	<path d="M452.766,4.923c-14.801-14.806-65.045,11.435-79.847,26.241l-59.28,59.284h-269.655c-6.409,0-11.918,4.555-13.119,10.854c-1.198,6.298,2.249,12.556,8.21,14.911l178.319,70.471l-109.346,109.342h-103.421c-2.218,0.7-4.132,1.582-4.545,3.766c-0.416,2.19,0.777,4.356,2.846,5.171l87.028,34.396c0.502,2.185,1.203,4.323,2.101,6.414l-3.807,3.815c-5.424,5.421-5.424,14.204,0,19.631c5.417,5.424,14.217,5.424,19.634,0l3.716-3.714c2.106,0.93,4.277,1.663,6.49,2.188l33.545,85.971c0.808,2.074,2.979,3.272,5.167,2.867c0.941-0.169,1.774-0.635,2.415-1.279c0.847-0.836,1.355-1.998,1.355-3.273v-101.243l111.08-111.076l69.807,178.907c2.336,5.976,8.597,9.45,14.905,8.268c2.726-0.514,5.122-1.833,6.972-3.67c2.464-3.29,3.912-5.802,3.92-9.458v-269.648l59.281-59.283c14.796-14.805,41.03-65.049,26.229-79.853Z" style="fill:green;fill-opacity:1;"/>
</g>
<g>
</g>
<g>
</g>
<g>
</g>
<g>
</g>
<g>
</g>
<g>
</g>
<g>
</g>
<g>
</g>
<g>
</g>
<g>
</g>
<g>
</g>
<g>
</g>
<g>
</g>
<g>
</g>
<g>
</g>
</svg>